<?xml version="1.0" encoding="utf-8"?>
<!-- Generator: Adobe Illustrator 23.0.1, SVG Export Plug-In . SVG Version: 6.00 Build 0)  -->
<svg version="1.1" id="Ebene_1" xmlns="http://www.w3.org/2000/svg" xmlns:xlink="http://www.w3.org/1999/xlink" x="0px" y="0px"
	 viewBox="0 0 512 512" style="enable-background:new 0 0 512 512;" xml:space="preserve">
<style type="text/css">
	.st0{display:none;fill:#FEFEFE;}
	.st1{fill:#F6E984;}
	.st2{fill:#F7DB3F;}
	.st3{fill:#FAAB14;}
	.st4{fill:#F7F0BF;}
</style>
<g>
	<path class="st0" d="M373.2,50.8c28.4,0,56.8,0,85.2-0.1c2.4,0,2.9,0.5,2.9,2.9c-0.1,134.9-0.1,269.9,0,404.8
		c0,2.4-0.5,2.9-2.9,2.9c-134.9-0.1-269.9-0.1-404.8,0c-2.4,0-2.9-0.5-2.9-2.9c0.1-134.9,0.1-269.9,0-404.8c0-2.9,1.1-2.8,3.3-2.8
		c102.4,0,204.8,0,307.2,0c-0.3,0.2-0.6,0.6-1,0.7c-20.1,3.6-31.7,18.5-31.9,39.3c-0.1,16-2.1,31.8-5.1,47.5
		c-7.1,37.5-20.5,72.6-40.4,105.2c-2.2,3.5-4.5,6.9-6.8,10.4c-0.5-0.4-0.7-0.5-0.7-0.6c-0.2-0.6-0.4-1.2-0.6-1.9
		c-4-14.4-11.2-26.7-23.3-35.8c-19.9-15-42.3-17.1-65.2-10.1c-43.2,13.3-70.6,43.1-84.5,85.5c-3.5,10.5-4.7,8.1,6,13.9
		c1.8,1,2.8,0.8,4.2-0.9c11.1-13.4,23.6-25.3,38.3-34.7c13.1-8.3,26.8-15.1,42.8-14.4c11.1,0.5,19.5,5.7,23.9,16.3
		c3.8,9.1,3.7,18.6,2.2,28.2c-1.2,7.8-4,15.1-5.9,22.7c-0.9,1.9-2.7,3-4.2,4.2c-35.1,27.5-74.4,46.7-117.7,57.4
		c-17.3,4.3-28.3,14.6-30.8,32.8c-2.1,20.4,9.9,36.3,25.6,41.2c7.2,2.2,14.7,2.4,22.1,2.6c16.8,0.4,33.5,0,50.2-2.1
		c25.1-3.2,49.4-9.4,72.9-18.8c8.5-3.4,16.7-7.3,25.1-11c-3.6,4.6-8.5,7.5-13.2,10.8c-1.3,0.9-2.9,1.6-2.7,3.6c0.3,2,2,2.3,3.5,2.8
		c12,4.1,24.3,4.8,36.6,2.6c29.4-5.3,52.7-21,71.1-43.9c18.4-22.8,29.1-48.8,27.8-78.7c-0.2-3.5,1.1-3.8,3.9-2.6
		c15.7,6.5,27.2,17.3,34.4,32.7c5.2,11,7.1,22.8,7.2,34.9c0,2.3,1,3.4,2.9,4.1c1.9,0.7,2.7-0.7,3.4-1.9
		c13.8-22.3,21.4-46.1,18.7-72.7c-3-29.1-21.2-51.1-49.6-58.9c12.7-37.6,17.9-76.2,15.1-115.9c-1.6-22.8-5.7-45.1-12.3-66.9
		c-2.8-9.2-8-16.7-16.3-22C382.8,53.6,377.9,52.6,373.2,50.8z"/>
	<path class="st1" d="M213.3,322.1c2-7.6,4.8-14.9,5.9-22.7c1.4-9.6,1.6-19.1-2.2-28.2c-4.4-10.6-12.8-15.8-23.9-16.3
		c-16-0.7-29.7,6.1-42.8,14.4c-14.7,9.4-27.2,21.3-38.3,34.7c-1.4,1.7-2.4,1.9-4.2,0.9c-10.7-5.7-9.5-3.3-6-13.9
		c13.9-42.4,41.3-72.2,84.5-85.5c22.9-7.1,45.3-4.9,65.2,10.1c12.1,9.1,19.3,21.4,23.3,35.8c0.2,0.6,0.4,1.3,0.6,1.9
		c0,0.1,0.2,0.2,0.7,0.6c2.3-3.5,4.6-6.9,6.8-10.4c19.9-32.6,33.4-67.7,40.4-105.2c2.9-15.7,4.9-31.5,5.1-47.5
		c0.2-20.8,11.8-35.7,31.9-39.3c0.3-0.1,0.6-0.4,1-0.7c1.1,0,2.1,0,3.2,0c0.6,8.4,3.3,16.3,4.4,24.6c1.5,11.3,3.3,22.6,3.4,34
		c0.2,10.6,0.2,21.2-0.5,31.9c-1.1,16.3-3.4,32.4-7.2,48.3c-5.6,23.9-14,46.8-25.6,68.5c-1.8,3.4-1.6,4.8,2.1,6.4
		c11.9,5.1,21.1,13.5,28,24.5c4,6.5,6.4,13.5,8.8,21.6c9.4-16.3,16.6-32.7,22.6-49.6c28.3,7.7,46.6,29.7,49.6,58.9
		c2.7,26.6-4.9,50.4-18.7,72.7c-0.8,1.2-1.5,2.6-3.4,1.9c-2-0.7-2.9-1.8-2.9-4.1c-0.1-12.1-2-23.8-7.2-34.9
		c-7.2-15.4-18.7-26.3-34.4-32.7c-2.8-1.2-4-0.9-3.9,2.6c1.3,29.9-9.4,55.9-27.8,78.7c-18.4,22.9-41.7,38.6-71.1,43.9
		c-12.3,2.2-24.6,1.6-36.6-2.6c-1.5-0.5-3.2-0.8-3.5-2.8c-0.3-2,1.4-2.7,2.7-3.6c4.7-3.3,9.6-6.2,13.2-10.8c2.7-2.5,5.9-4.5,8.4-7.3
		c7.4-8.4,14.3-17.1,19.8-27c8.5-15.6,14.2-32,15-49.9c0.4-8.5-0.1-16.9-1.7-25.3c-0.2-0.6-0.3-1.2-0.5-1.8c1.6,0.1,2.3-1.2,3.1-2.2
		c4.1-5,8.2-10.1,12.2-15.2c8.4-10.7,15.6-22.1,22.3-34c1.4-2.4,1-3.4-1.7-4.1c-4.8-1.2-9.5-2.5-14.4-2.8
		c-14.7-0.9-28.9,1.4-42.4,7.3c-4.7,2.1-10,3.4-13.6,7.7c-1.3,0.1-2.2,0.9-2.9,1.9C248.9,290,236.3,303,222.8,315
		C219.9,317.6,217.3,320.8,213.3,322.1z"/>
	<path class="st2" d="M400.6,261c-6,16.9-13.1,33.3-22.6,49.6c-2.5-8.1-4.8-15.2-8.8-21.6c-6.9-11.1-16.1-19.4-28-24.5
		c-3.6-1.6-3.9-3-2.1-6.4c11.5-21.7,19.9-44.6,25.6-68.5c3.8-15.9,6.1-32,7.2-48.3c0.7-10.7,0.7-21.3,0.5-31.9
		c-0.2-11.4-2-22.7-3.4-34c-1.1-8.3-3.8-16.3-4.4-24.6c2.9,0,5.9,0,8.8,0c4.6,1.8,9.6,2.8,13.9,5.5c8.3,5.2,13.5,12.8,16.3,22
		c6.6,21.8,10.7,44.1,12.3,66.9C418.5,184.8,413.3,223.4,400.6,261z"/>
	<path class="st3" d="M297.9,318.8c1.6,8.4,2.1,16.8,1.7,25.3c-0.8,17.9-6.5,34.3-15,49.9c-5.4,9.9-12.4,18.6-19.8,27
		c-2.5,2.8-5.7,4.8-8.4,7.3c-8.4,3.7-16.6,7.6-25.1,11c-23.5,9.4-47.8,15.6-72.9,18.8c-16.7,2.2-33.4,2.6-50.2,2.1
		c-7.4-0.2-14.9-0.4-22.1-2.6c-15.7-4.9-27.7-20.8-25.6-41.2c23.2,0.3,46.4-0.4,69.4-4.7c25.2-4.7,49.4-12.2,72.7-22.9
		c16.9-7.8,32.9-17.3,48-28.3c15.9-11.5,30.3-24.6,43.9-38.7C295.6,320.8,295.9,318.8,297.9,318.8z"/>
	<path class="st2" d="M297.9,318.8c-2.1-0.1-2.4,1.9-3.4,3c-13.6,14.1-28.1,27.2-43.9,38.7c-15.1,11-31.1,20.5-48,28.3
		c-23.2,10.8-47.4,18.2-72.7,22.9c-23,4.3-46.1,4.9-69.4,4.7c2.6-18.2,13.5-28.5,30.8-32.8c43.3-10.8,82.6-29.9,117.7-57.4
		c1.6-1.2,3.3-2.3,4.2-4.2c4-1.3,6.6-4.5,9.5-7.1c13.5-12,26.1-25,37.2-39.3c0.8-1,1.6-1.8,2.9-1.9c18.3,9,29.5,23.6,34.5,43.2
		C297.6,317.7,297.8,318.2,297.9,318.8z"/>
	<path class="st4" d="M297.4,317.1c-5-19.6-16.2-34.3-34.5-43.2c3.6-4.2,8.8-5.6,13.6-7.7c13.5-5.9,27.7-8.2,42.4-7.3
		c4.9,0.3,9.7,1.6,14.4,2.8c2.7,0.7,3.1,1.7,1.7,4.1c-6.7,11.8-13.9,23.3-22.3,34c-4,5.1-8.1,10.2-12.2,15.2
		C299.8,315.9,299,317.2,297.4,317.1z"/>
</g>
</svg>
